<?xml version="1.0" encoding="UTF-8" standalone="no"?>
<!-- Generator: visioncortex VTracer 0.6.4 -->

<svg
   version="1.1"
   width="591"
   height="980"
   id="svg4"
   xmlns:inkscape="http://www.inkscape.org/namespaces/inkscape"
   xmlns:sodipodi="http://sodipodi.sourceforge.net/DTD/sodipodi-0.dtd"
   xmlns="http://www.w3.org/2000/svg"
   xmlns:svg="http://www.w3.org/2000/svg">
  <defs
     id="defs4" />

  <path
     d="M 1.4104969,-4.7316954e-7 H 592.41053 V 979.99995 H 1.4104969 Z"
     fill="#000000"
     id="path1"
     style="display:inline;fill:#ff2a2a"
    />
  <path
     d="M 1.2039217,-0.49868218 H 592.20387 V 979.50129 H 1.2039217 V 392.50132 l 2.00001,3 3,6 13.9999903,19 12,12 8,5 h 8 4 l 12,4 20,4 6,1 h 8 l 20.999998,-4 16,-8 11,-9 9,-12 4,-6 9,-8 11,-5 8,-2 h 14 l 9,2 20,9 23,7 21,3 h 22 l 20,-3 15,-5 2,1 -15,14 -16,16 -7,8 -12,13 -9,11 -13,15 -11,14 -12,15 -15,20 -14,19 -13,18 -13,19 -11,17 -10,18 -11,23 -8,22 -6,24 -3,25 v 26 l 5,29.99997 4,13 6,16 6,11 v 2 l 368.99999,-1 -5,-8 -4,-13 -3,-22 v -34.99997 l 1,-12 4,-15 7,-30 5,-20 4,-14 6,-24 6,-20 3.99996,-15 9,-29 10,-25 7,-16 3,-10 6,-28 5,-49 1,-25 v -25 l -2,-18 -4,-24 -7,-34 -6,-23 -9,-29 -7,-20 -9.99996,-20 -12,-18 -11,-14 -11,-12 -18,-18 -11,-9 -20,-15 -18.99999,-12 -16,-9 -22,-10.000002 -30,-10 -12,-2 -5,-15 -9,-15 -11,-14 -14,-15 -14,-13 -13,-10.00000018 3,25.00000018 1,14 v 30 l -2,9 -3,4 -21,5 -24,7 -11,2 10,32.000002 v 2 l -33,11 -24,10 -16,8 -7,4 h -2 l -2,6 -11,22 -12,14 -12,12 -8,7 -14,13 -8,7 -13.999998,12 -15,13 -11,9 -14,12 -11,9 -14,12 -11,9 -3.9999903,6 v 23 l -3,20 -2.00001,6 h -1 z"
     fill="#fefefe"
     id="path2"
     style="display:inline"
     />
  <path
     d="M0,0 L424,0 L432,5 L435,10 L435,138 L431,145 L424,149 L0,149 L-7,145 L-11,138 L-11,10 L-7,4 Z "
     fill="#000000"
     transform="translate(124,831)"
     id="path4"
     style="fill:#ff0000"
      />
</svg>
